<svg xmlns="http://www.w3.org/2000/svg" xmlns:xlink="http://www.w3.org/1999/xlink" style="margin:auto;background:#070616;display:block;z-index:1;position:relative" width="1920" height="1080" preserveAspectRatio="xMidYMid" viewBox="0 0 1920 1080">
<g transform=""><defs>
  <path id="path-r9mfi5dm5uf-1" d="M-35 -35L35 -35L35 35L-35 35Z" fill="none" stroke="inherit" stroke-width="4.333333333333334" transform="scale(0.3)"></path>
  <path id="path-r9mfi5dm5uf-2" d="M0 -37A37 37 0 0 1 0 37A37 37 0 0 1 0 -37" fill="none" stroke="inherit" stroke-width="4.333333333333334" transform="scale(0.3)"></path>
  <path id="path-r9mfi5dm5uf-3" d="M0 -34.641L40 34.641L-40 34.641Z" fill="none" stroke="inherit" stroke-width="4.333333333333334" transform="scale(0.3)"></path>
</defs><path id="path0" d="M 54.35224578128661 747.0678272022099
c 0 49.07091591868422 -12.006713469465288 14.094837551111427 -26.101551020576714 14.094837551111427
S 2.1491437401331837 796.1387431208941 2.1491437401331837 747.0678272022099
s 12.006713469465288 -14.094837551111427 26.101551020576714 -14.094837551111427
S 54.35224578128661 697.9969112835256 54.35224578128661 747.0678272022099
z" fill="none" stroke="none"></path>
<use xlink:href="#path-r9mfi5dm5uf-1" x="0" y="0" stroke="#aabbcc">
  <animateMotion begin="-4.388119647096643s" dur="17.547800103379675s" keyPoints="0;1" keyTimes="0;1" repeatCount="indefinite" calcMode="linear">
    <mpath xlink:href="#path0"></mpath>
  </animateMotion>
</use><path id="path1" d="M 96.1283276666677 665.4301533326753
c 0 33.8993329290898 -8.294517631585803 9.737042437078987 -18.03156006866479 9.737042437078987
S 60.065207529338124 699.3294862617652 60.065207529338124 665.4301533326753
s 8.294517631585803 -9.737042437078987 18.03156006866479 -9.737042437078987
S 96.1283276666677 631.5308204035855 96.1283276666677 665.4301533326753
z" fill="none" stroke="none"></path>
<use xlink:href="#path-r9mfi5dm5uf-1" x="0" y="0" stroke="#aabbcc">
  <animateMotion begin="-4.499558212215558s" dur="16.459617851222514s" keyPoints="0;1" keyTimes="0;1" repeatCount="indefinite" calcMode="linear">
    <mpath xlink:href="#path1"></mpath>
  </animateMotion>
</use><path id="path2" d="M 171.54121211831253 137.84255378105752
c 0 61.75710028802557 -15.110779857708383 17.73874157209245 -32.84952142980083 17.73874157209245
S 105.84216925871087 199.5996540690831 105.84216925871087 137.84255378105752
s 15.110779857708383 -17.73874157209245 32.84952142980083 -17.73874157209245
S 171.54121211831253 76.08545349303195 171.54121211831253 137.84255378105752
z" fill="none" stroke="none"></path>
<use xlink:href="#path-r9mfi5dm5uf-2" x="0" y="0" stroke="#bbddff">
  <animateMotion begin="-1.651429915692405s" dur="14.800200853370074s" keyPoints="0;1" keyTimes="0;1" repeatCount="indefinite" calcMode="linear">
    <mpath xlink:href="#path2"></mpath>
  </animateMotion>
</use><path id="path3" d="M 199.90083222779754 331.6364324629353
c 0 54.23495102010151 -13.27025397300356 15.578124229178094 -28.848378202181657 15.578124229178094
S 142.2040758234342 385.8713834830368 142.2040758234342 331.6364324629353
s 13.27025397300356 -15.578124229178094 28.848378202181657 -15.578124229178094
S 199.90083222779754 277.4014814428338 199.90083222779754 331.6364324629353
z" fill="none" stroke="none"></path>
<use xlink:href="#path-r9mfi5dm5uf-1" x="0" y="0" stroke="#ddeeff">
  <animateMotion begin="-3.9511840769356423s" dur="18.83376481905854s" keyPoints="1;0" keyTimes="0;1" repeatCount="indefinite" calcMode="linear">
    <mpath xlink:href="#path3"></mpath>
  </animateMotion>
</use><path id="path4" d="M 274.3273944734066 139.86453380801626
c 0 44.80614290375606 -10.96320517857861 12.869849557461848 -23.83305473604046 12.869849557461848
S 226.6612850013257 184.67067671177233 226.6612850013257 139.86453380801626
s 10.96320517857861 -12.869849557461848 23.83305473604046 -12.869849557461848
S 274.3273944734066 95.0583909042602 274.3273944734066 139.86453380801626
z" fill="none" stroke="none"></path>
<use xlink:href="#path-r9mfi5dm5uf-3" x="0" y="0" stroke="#aabbcc">
  <animateMotion begin="-3.360489731385093s" dur="14.0877475158265s" keyPoints="0;1" keyTimes="0;1" repeatCount="indefinite" calcMode="linear">
    <mpath xlink:href="#path4"></mpath>
  </animateMotion>
</use><path id="path5" d="M 314.91311276638237 338.28777137678367
c 0 51.74762767131489 -12.661653579151514 14.863680288569169 -27.525333867720683 14.863680288569169
S 259.862445030941 390.03539904809855 259.862445030941 338.28777137678367
s 12.661653579151514 -14.863680288569169 27.525333867720683 -14.863680288569169
S 314.91311276638237 286.5401437054688 314.91311276638237 338.28777137678367
z" fill="none" stroke="none"></path>
<use xlink:href="#path-r9mfi5dm5uf-3" x="0" y="0" stroke="#aabbcc">
  <animateMotion begin="-1.1218363910332285s" dur="10.436089418263991s" keyPoints="0;1" keyTimes="0;1" repeatCount="indefinite" calcMode="linear">
    <mpath xlink:href="#path5"></mpath>
  </animateMotion>
</use><path id="path6" d="M 360.4229787443109 1056.2314764845132
c 0 51.42847661583534 -12.58356342727886 14.772009240718662 -27.35557266799752 14.772009240718662
S 305.71183340831584 1107.6599531003485 305.71183340831584 1056.2314764845132
s 12.58356342727886 -14.772009240718662 27.35557266799752 -14.772009240718662
S 360.4229787443109 1004.8029998686778 360.4229787443109 1056.2314764845132
z" fill="none" stroke="none"></path>
<use xlink:href="#path-r9mfi5dm5uf-1" x="0" y="0" stroke="#ddeeff">
  <animateMotion begin="-1.2970517619093314s" dur="13.010293597507339s" keyPoints="0;1" keyTimes="0;1" repeatCount="indefinite" calcMode="linear">
    <mpath xlink:href="#path6"></mpath>
  </animateMotion>
</use><path id="path7" d="M 393.3456831566581 671.6228033045516
c 0 52.157246537111625 -12.761879471846461 14.981336771298022 -27.74321624314448 14.981336771298022
S 337.8592506703691 723.7800498416632 337.8592506703691 671.6228033045516
s 12.761879471846461 -14.981336771298022 27.74321624314448 -14.981336771298022
S 393.3456831566581 619.4655567674399 393.3456831566581 671.6228033045516
z" fill="none" stroke="none"></path>
<use xlink:href="#path-r9mfi5dm5uf-2" x="0" y="0" stroke="#bbddff">
  <animateMotion begin="-2.6050004808608254s" dur="15.903667917810974s" keyPoints="0;1" keyTimes="0;1" repeatCount="indefinite" calcMode="linear">
    <mpath xlink:href="#path7"></mpath>
  </animateMotion>
</use><path id="path8" d="M 432.62524934926324 86.66880524359642
c 0 34.52876146842873 -8.448526742275115 9.917835740931658 -18.36636248320677 9.917835740931658
S 395.8925243828497 121.19756671202515 395.8925243828497 86.66880524359642
s 8.448526742275115 -9.917835740931658 18.36636248320677 -9.917835740931658
S 432.62524934926324 52.14004377516769 432.62524934926324 86.66880524359642
z" fill="none" stroke="none"></path>
<use xlink:href="#path-r9mfi5dm5uf-1" x="0" y="0" stroke="#ddeeff">
  <animateMotion begin="-0.12704152103098054s" dur="13.144712962952907s" keyPoints="1;0" keyTimes="0;1" repeatCount="indefinite" calcMode="linear">
    <mpath xlink:href="#path8"></mpath>
  </animateMotion>
</use><path id="path9" d="M 483.80629707354274 438.76716231513075
c 0 57.34580367574748 -14.031420048321191 16.471667013246616 -30.503087061567808 16.471667013246616
S 422.8001229504072 496.11296599087825 422.8001229504072 438.76716231513075
s 14.031420048321191 -16.471667013246616 30.503087061567808 -16.471667013246616
S 483.80629707354274 381.42135863938324 483.80629707354274 438.76716231513075
z" fill="none" stroke="none"></path>
<use xlink:href="#path-r9mfi5dm5uf-2" x="0" y="0" stroke="#aabbcc">
  <animateMotion begin="-0.025341221978899542s" dur="13.19765594223915s" keyPoints="0;1" keyTimes="0;1" repeatCount="indefinite" calcMode="linear">
    <mpath xlink:href="#path9"></mpath>
  </animateMotion>
</use><path id="path10" d="M 564.1232116102578 741.1515891817071
c 0 51.282672280098375 -12.54788789832194 14.73012927194315 -27.27801717026509 14.73012927194315
S 509.5671772697276 792.4342614618055 509.5671772697276 741.1515891817071
s 12.54788789832194 -14.73012927194315 27.27801717026509 -14.73012927194315
S 564.1232116102578 689.8689169016087 564.1232116102578 741.1515891817071
z" fill="none" stroke="none"></path>
<use xlink:href="#path-r9mfi5dm5uf-3" x="0" y="0" stroke="#bbddff">
  <animateMotion begin="-3.272365189230988s" dur="18.777610120836236s" keyPoints="1;0" keyTimes="0;1" repeatCount="indefinite" calcMode="linear">
    <mpath xlink:href="#path10"></mpath>
  </animateMotion>
</use><path id="path11" d="M 568.7517350594962 882.1390658845438
c 0 35.25816127961028 -8.62699690884081 10.127344197334867 -18.75434110617568 10.127344197334867
S 531.2430528471448 917.3972271641541 531.2430528471448 882.1390658845438
s 8.62699690884081 -10.127344197334867 18.75434110617568 -10.127344197334867
S 568.7517350594962 846.8809046049336 568.7517350594962 882.1390658845438
z" fill="none" stroke="none"></path>
<use xlink:href="#path-r9mfi5dm5uf-2" x="0" y="0" stroke="#ddeeff">
  <animateMotion begin="-0.17815081605088934s" dur="12.58167521845511s" keyPoints="1;0" keyTimes="0;1" repeatCount="indefinite" calcMode="linear">
    <mpath xlink:href="#path11"></mpath>
  </animateMotion>
</use><path id="path12" d="M 640.339617257453 524.3018771813581
c 0 64.34098720024885 -15.743007506443865 18.480921855390626 -34.22392936183449 18.480921855390626
S 571.891758533784 588.642864381607 571.891758533784 524.3018771813581
s 15.743007506443865 -18.480921855390626 34.22392936183449 -18.480921855390626
S 640.339617257453 459.9608899811093 640.339617257453 524.3018771813581
z" fill="none" stroke="none"></path>
<use xlink:href="#path-r9mfi5dm5uf-3" x="0" y="0" stroke="#ddeeff">
  <animateMotion begin="-0.04867459847434974s" dur="17.67246956582105s" keyPoints="0;1" keyTimes="0;1" repeatCount="indefinite" calcMode="linear">
    <mpath xlink:href="#path12"></mpath>
  </animateMotion>
</use><path id="path13" d="M 659.2795242089733 904.366574915498
c 0 22.811109634904604 -5.581441719178786 6.552127235557705 -12.133568954736491 6.552127235557705
S 635.0123862995003 927.1776845504025 635.0123862995003 904.366574915498
s 5.581441719178786 -6.552127235557705 12.133568954736491 -6.552127235557705
S 659.2795242089733 881.5554652805934 659.2795242089733 904.366574915498
z" fill="none" stroke="none"></path>
<use xlink:href="#path-r9mfi5dm5uf-3" x="0" y="0" stroke="#bbddff">
  <animateMotion begin="-2.1576659304311105s" dur="12.60081626586958s" keyPoints="0;1" keyTimes="0;1" repeatCount="indefinite" calcMode="linear">
    <mpath xlink:href="#path13"></mpath>
  </animateMotion>
</use><path id="path14" d="M 705.6572398804843 106.71023316540598
c 0 29.94411552761239 -7.3267516716498395 8.600969353675898 -15.927721025325738 8.600969353675898
S 673.8017978298329 136.65434869301836 673.8017978298329 106.71023316540598
s 7.3267516716498395 -8.600969353675898 15.927721025325738 -8.600969353675898
S 705.6572398804843 76.7661176377936 705.6572398804843 106.71023316540598
z" fill="none" stroke="none"></path>
<use xlink:href="#path-r9mfi5dm5uf-2" x="0" y="0" stroke="#aabbcc">
  <animateMotion begin="-3.791907503192343s" dur="18.58095981703367s" keyPoints="1;0" keyTimes="0;1" repeatCount="indefinite" calcMode="linear">
    <mpath xlink:href="#path14"></mpath>
  </animateMotion>
</use><path id="path15" d="M 761.8589716887727 1021.3811020607922
c 0 54.76932126090627 -13.40100413830685 15.731613553664568 -29.13261769197142 15.731613553664568
S 703.5937363048299 1076.1504233216983 703.5937363048299 1021.3811020607922
s 13.40100413830685 -15.731613553664568 29.13261769197142 -15.731613553664568
S 761.8589716887727 966.6117807998859 761.8589716887727 1021.3811020607922
z" fill="none" stroke="none"></path>
<use xlink:href="#path-r9mfi5dm5uf-3" x="0" y="0" stroke="#aabbcc">
  <animateMotion begin="-0.20879557788031633s" dur="15.796571366486084s" keyPoints="1;0" keyTimes="0;1" repeatCount="indefinite" calcMode="linear">
    <mpath xlink:href="#path15"></mpath>
  </animateMotion>
</use><path id="path16" d="M 839.9776351965321 815.8370952814446
c 0 61.44119039453878 -15.033482756110551 17.648001496303692 -32.68148425241424 17.648001496303692
S 774.6146666917035 877.2782856759834 774.6146666917035 815.8370952814446
s 15.033482756110551 -17.648001496303692 32.68148425241424 -17.648001496303692
S 839.9776351965321 754.3959048869058 839.9776351965321 815.8370952814446
z" fill="none" stroke="none"></path>
<use xlink:href="#path-r9mfi5dm5uf-2" x="0" y="0" stroke="#ddeeff">
  <animateMotion begin="-3.047502866082196s" dur="15.36182771664441s" keyPoints="1;0" keyTimes="0;1" repeatCount="indefinite" calcMode="linear">
    <mpath xlink:href="#path16"></mpath>
  </animateMotion>
</use><path id="path17" d="M 862.7614141828375 865.0416199007364
c 0 33.9994541640491 -8.319015380565205 9.765800664141763 -18.084816044706965 9.765800664141763
S 826.5917820934236 899.0410740647854 826.5917820934236 865.0416199007364
s 8.319015380565205 -9.765800664141763 18.084816044706965 -9.765800664141763
S 862.7614141828375 831.0421657366873 862.7614141828375 865.0416199007364
z" fill="none" stroke="none"></path>
<use xlink:href="#path-r9mfi5dm5uf-1" x="0" y="0" stroke="#ddeeff">
  <animateMotion begin="-1.6308878415140193s" dur="15.597503620827295s" keyPoints="0;1" keyTimes="0;1" repeatCount="indefinite" calcMode="linear">
    <mpath xlink:href="#path17"></mpath>
  </animateMotion>
</use><path id="path18" d="M 903.4824474940283 247.09033681422255
c 0 58.802845559518474 -14.387930296477922 16.89017904369148 -31.2781093401694 16.89017904369148
S 840.9262288136895 305.893182373741 840.9262288136895 247.09033681422255
s 14.387930296477922 -16.89017904369148 31.2781093401694 -16.89017904369148
S 903.4824474940283 188.2874912547041 903.4824474940283 247.09033681422255
z" fill="none" stroke="none"></path>
<use xlink:href="#path-r9mfi5dm5uf-3" x="0" y="0" stroke="#bbddff">
  <animateMotion begin="-4.86682920775074s" dur="10.763686306956375s" keyPoints="1;0" keyTimes="0;1" repeatCount="indefinite" calcMode="linear">
    <mpath xlink:href="#path18"></mpath>
  </animateMotion>
</use><path id="path19" d="M 957.538300961504 282.1951342403871
c 0 38.49216364175427 -9.418295359152639 11.056259769440056 -20.474555128592694 11.056259769440056
S 916.5891907043186 320.68729788214137 916.5891907043186 282.1951342403871
s 9.418295359152639 -11.056259769440056 20.474555128592694 -11.056259769440056
S 957.538300961504 243.70297059863285 957.538300961504 282.1951342403871
z" fill="none" stroke="none"></path>
<use xlink:href="#path-r9mfi5dm5uf-2" x="0" y="0" stroke="#ddeeff">
  <animateMotion begin="-0.6181714326488907s" dur="17.823154799495956s" keyPoints="1;0" keyTimes="0;1" repeatCount="indefinite" calcMode="linear">
    <mpath xlink:href="#path19"></mpath>
  </animateMotion>
</use><path id="path20" d="M 1031.1609523590773 360.23627138481726
c 0 52.53884226776976 -12.855248639986215 15.090944055635994 -27.94619269562221 15.090944055635994
S 975.268566967833 412.77511365258704 975.268566967833 360.23627138481726
s 12.855248639986215 -15.090944055635994 27.94619269562221 -15.090944055635994
S 1031.1609523590773 307.6974291170475 1031.1609523590773 360.23627138481726
z" fill="none" stroke="none"></path>
<use xlink:href="#path-r9mfi5dm5uf-1" x="0" y="0" stroke="#bbddff">
  <animateMotion begin="-0.6519653512564871s" dur="15.775275091783502s" keyPoints="0;1" keyTimes="0;1" repeatCount="indefinite" calcMode="linear">
    <mpath xlink:href="#path20"></mpath>
  </animateMotion>
</use><path id="path21" d="M 1072.8940869750938 825.222487014092
c 0 49.674916154757234 -12.154500761270384 14.268326980621758 -26.422827741892142 14.268326980621758
S 1020.0484314913095 874.8974031688493 1020.0484314913095 825.222487014092
s 12.154500761270384 -14.268326980621758 26.422827741892142 -14.268326980621758
S 1072.8940869750938 775.5475708593348 1072.8940869750938 825.222487014092
z" fill="none" stroke="none"></path>
<use xlink:href="#path-r9mfi5dm5uf-2" x="0" y="0" stroke="#ddeeff">
  <animateMotion begin="-0.1252936923895709s" dur="15.843190716388246s" keyPoints="0;1" keyTimes="0;1" repeatCount="indefinite" calcMode="linear">
    <mpath xlink:href="#path21"></mpath>
  </animateMotion>
</use><path id="path22" d="M 1098.1882189638204 205.8077195879814
c 0 23.17026258061749 -5.669319567597896 6.655288188049705 -12.324607755647602 6.655288188049705
S 1073.5390034525253 228.97798216859888 1073.5390034525253 205.8077195879814
s 5.669319567597896 -6.655288188049705 12.324607755647602 -6.655288188049705
S 1098.1882189638204 182.63745700736393 1098.1882189638204 205.8077195879814
z" fill="none" stroke="none"></path>
<use xlink:href="#path-r9mfi5dm5uf-3" x="0" y="0" stroke="#bbddff">
  <animateMotion begin="-1.911789361545655s" dur="15.939250469439454s" keyPoints="0;1" keyTimes="0;1" repeatCount="indefinite" calcMode="linear">
    <mpath xlink:href="#path22"></mpath>
  </animateMotion>
</use><path id="path23" d="M 1121.8441227194278 428.9766824785698
c 0 24.17213807143178 -5.914459315350329 6.943060935411256 -12.857520250761585 6.943060935411256
S 1096.1290822179046 453.1488205500016 1096.1290822179046 428.9766824785698
s 5.914459315350329 -6.943060935411256 12.857520250761585 -6.943060935411256
S 1121.8441227194278 404.804544407138 1121.8441227194278 428.9766824785698
z" fill="none" stroke="none"></path>
<use xlink:href="#path-r9mfi5dm5uf-1" x="0" y="0" stroke="#bbddff">
  <animateMotion begin="-4.707100100948566s" dur="19.323563268269275s" keyPoints="0;1" keyTimes="0;1" repeatCount="indefinite" calcMode="linear">
    <mpath xlink:href="#path23"></mpath>
  </animateMotion>
</use><path id="path24" d="M 1186.0993228814411 225.87808295887277
c 0 32.08962474537262 -7.851716693016703 9.217232639628305 -17.06894933264501 9.217232639628305
S 1151.9614242161513 257.9677077042454 1151.9614242161513 225.87808295887277
s 7.851716693016703 -9.217232639628305 17.06894933264501 -9.217232639628305
S 1186.0993228814411 193.78845821350015 1186.0993228814411 225.87808295887277
z" fill="none" stroke="none"></path>
<use xlink:href="#path-r9mfi5dm5uf-1" x="0" y="0" stroke="#aabbcc">
  <animateMotion begin="-2.2961031882721104s" dur="14.086488751060626s" keyPoints="1;0" keyTimes="0;1" repeatCount="indefinite" calcMode="linear">
    <mpath xlink:href="#path24"></mpath>
  </animateMotion>
</use><path id="path25" d="M 1228.7887777532296 147.15514038735114
c 0 63.904396637910175 -15.636182156084402 18.35551818322952 -33.99170033931392 18.35551818322952
S 1160.805377074602 211.0595370252613 1160.805377074602 147.15514038735114
s 15.636182156084402 -18.35551818322952 33.99170033931392 -18.35551818322952
S 1228.7887777532296 83.25074374944097 1228.7887777532296 147.15514038735114
z" fill="none" stroke="none"></path>
<use xlink:href="#path-r9mfi5dm5uf-3" x="0" y="0" stroke="#ddeeff">
  <animateMotion begin="-0.6849856325608716s" dur="11.48108518811927s" keyPoints="0;1" keyTimes="0;1" repeatCount="indefinite" calcMode="linear">
    <mpath xlink:href="#path25"></mpath>
  </animateMotion>
</use><path id="path26" d="M 1307.12242865886 286.1314705685042
c 0 49.99557222650292 -12.232959161803905 14.360430320378498 -26.593389482182403 14.360430320378498
S 1253.9356496944952 336.1270427950071 1253.9356496944952 286.1314705685042
s 12.232959161803905 -14.360430320378498 26.593389482182403 -14.360430320378498
S 1307.12242865886 236.13589834200127 1307.12242865886 286.1314705685042
z" fill="none" stroke="none"></path>
<use xlink:href="#path-r9mfi5dm5uf-1" x="0" y="0" stroke="#ddeeff">
  <animateMotion begin="-0.9499221549763803s" dur="15.511808382322872s" keyPoints="0;1" keyTimes="0;1" repeatCount="indefinite" calcMode="linear">
    <mpath xlink:href="#path26"></mpath>
  </animateMotion>
</use><path id="path27" d="M 1305.0161297309298 819.7740135581722
c 0 21.063008709420046 -5.153714896985755 6.0500131399398 -11.203728036925556 6.0500131399398
S 1282.6086736570785 840.8370222675923 1282.6086736570785 819.7740135581722
s 5.153714896985755 -6.0500131399398 11.203728036925556 -6.0500131399398
S 1305.0161297309298 798.7110048487522 1305.0161297309298 819.7740135581722
z" fill="none" stroke="none"></path>
<use xlink:href="#path-r9mfi5dm5uf-3" x="0" y="0" stroke="#aabbcc">
  <animateMotion begin="-3.9180147713167224s" dur="11.156762398852159s" keyPoints="0;1" keyTimes="0;1" repeatCount="indefinite" calcMode="linear">
    <mpath xlink:href="#path27"></mpath>
  </animateMotion>
</use><path id="path28" d="M 1400.4315245654734 98.41165073170026
c 0 62.745085387613365 -15.352520892713907 18.022524526229372 -33.37504541894327 18.022524526229372
S 1333.6814337275869 161.15673611931362 1333.6814337275869 98.41165073170026
s 15.352520892713907 -18.022524526229372 33.37504541894327 -18.022524526229372
S 1400.4315245654734 35.6665653440869 1400.4315245654734 98.41165073170026
z" fill="none" stroke="none"></path>
<use xlink:href="#path-r9mfi5dm5uf-2" x="0" y="0" stroke="#aabbcc">
  <animateMotion begin="-3.2459228609707527s" dur="17.77245197925128s" keyPoints="1;0" keyTimes="0;1" repeatCount="indefinite" calcMode="linear">
    <mpath xlink:href="#path28"></mpath>
  </animateMotion>
</use><path id="path29" d="M 1413.7952529716463 364.5125425972532
c 0 38.555218197233266 -9.43372360145069 11.074371184311683 -20.508094785762374 11.074371184311683
S 1372.7790634001217 403.06776079448645 1372.7790634001217 364.5125425972532
s 9.43372360145069 -11.074371184311683 20.508094785762374 -11.074371184311683
S 1413.7952529716463 325.9573244000199 1413.7952529716463 364.5125425972532
z" fill="none" stroke="none"></path>
<use xlink:href="#path-r9mfi5dm5uf-1" x="0" y="0" stroke="#bbddff">
  <animateMotion begin="-1.5220247627964023s" dur="16.959273357047323s" keyPoints="1;0" keyTimes="0;1" repeatCount="indefinite" calcMode="linear">
    <mpath xlink:href="#path29"></mpath>
  </animateMotion>
</use><path id="path30" d="M 1488.2907754600335 654.4820435399508
c 0 33.205239412398655 -8.124686239203925 9.537675150369827 -17.66236138957375 9.537675150369827
S 1452.966052680886 687.6872829523495 1452.966052680886 654.4820435399508
s 8.124686239203925 -9.537675150369827 17.66236138957375 -9.537675150369827
S 1488.2907754600335 621.2768041275522 1488.2907754600335 654.4820435399508
z" fill="none" stroke="none"></path>
<use xlink:href="#path-r9mfi5dm5uf-1" x="0" y="0" stroke="#aabbcc">
  <animateMotion begin="-1.0016198764082551s" dur="10.883071785688564s" keyPoints="1;0" keyTimes="0;1" repeatCount="indefinite" calcMode="linear">
    <mpath xlink:href="#path30"></mpath>
  </animateMotion>
</use><path id="path31" d="M 1529.6099199934854 486.72830520643697
c 0 40.05707215853411 -9.801198506875366 11.50575476894065 -21.306953275816017 11.50575476894065
S 1486.9960134418532 526.785377364971 1486.9960134418532 486.72830520643697
s 9.801198506875366 -11.50575476894065 21.306953275816017 -11.50575476894065
S 1529.6099199934854 446.6712330479029 1529.6099199934854 486.72830520643697
z" fill="none" stroke="none"></path>
<use xlink:href="#path-r9mfi5dm5uf-2" x="0" y="0" stroke="#aabbcc">
  <animateMotion begin="-1.1896307309903331s" dur="18.749551736647152s" keyPoints="1;0" keyTimes="0;1" repeatCount="indefinite" calcMode="linear">
    <mpath xlink:href="#path31"></mpath>
  </animateMotion>
</use><path id="path32" d="M 1561.270471574975 444.5805216307731
c 0 44.746394831637595 -10.94858596944324 12.852687877172501 -23.80127384661574 12.852687877172501
S 1513.6679238817437 489.3269164624107 1513.6679238817437 444.5805216307731
s 10.94858596944324 -12.852687877172501 23.80127384661574 -12.852687877172501
S 1561.270471574975 399.8341267991355 1561.270471574975 444.5805216307731
z" fill="none" stroke="none"></path>
<use xlink:href="#path-r9mfi5dm5uf-3" x="0" y="0" stroke="#ddeeff">
  <animateMotion begin="-3.5004352290293284s" dur="10.031405230109554s" keyPoints="1;0" keyTimes="0;1" repeatCount="indefinite" calcMode="linear">
    <mpath xlink:href="#path32"></mpath>
  </animateMotion>
</use><path id="path33" d="M 1629.9121191796467 773.0650014347109
c 0 27.25768623298831 -6.669433865518415 7.829335407347706 -14.49876927286612 7.829335407347706
S 1600.9145806339143 800.3226876676993 1600.9145806339143 773.0650014347109
s 6.669433865518415 -7.829335407347706 14.49876927286612 -7.829335407347706
S 1629.9121191796467 745.8073152017225 1629.9121191796467 773.0650014347109
z" fill="none" stroke="none"></path>
<use xlink:href="#path-r9mfi5dm5uf-1" x="0" y="0" stroke="#bbddff">
  <animateMotion begin="-0.9259245712406161s" dur="16.60315942543945s" keyPoints="1;0" keyTimes="0;1" repeatCount="indefinite" calcMode="linear">
    <mpath xlink:href="#path33"></mpath>
  </animateMotion>
</use><path id="path34" d="M 1663.9376414088779 846.2949502697885
c 0 34.216119547551536 -8.37202925099665 9.828034338126505 -18.200063589123157 9.828034338126505
S 1627.5375142306316 880.5110698173401 1627.5375142306316 846.2949502697885
s 8.37202925099665 -9.828034338126505 18.200063589123157 -9.828034338126505
S 1663.9376414088779 812.078830722237 1663.9376414088779 846.2949502697885
z" fill="none" stroke="none"></path>
<use xlink:href="#path-r9mfi5dm5uf-1" x="0" y="0" stroke="#aabbcc">
  <animateMotion begin="-0.7512456648679111s" dur="11.28956631871291s" keyPoints="0;1" keyTimes="0;1" repeatCount="indefinite" calcMode="linear">
    <mpath xlink:href="#path34"></mpath>
  </animateMotion>
</use><path id="path35" d="M 1701.286588036727 205.92855756359398
c 0 28.368205202426374 -6.941156592083049 8.148314260271405 -15.089470852354454 8.148314260271405
S 1671.107646332018 234.29676276602035 1671.107646332018 205.92855756359398
s 6.941156592083049 -8.148314260271405 15.089470852354454 -8.148314260271405
S 1701.286588036727 177.56035236116762 1701.286588036727 205.92855756359398
z" fill="none" stroke="none"></path>
<use xlink:href="#path-r9mfi5dm5uf-1" x="0" y="0" stroke="#ddeeff">
  <animateMotion begin="-0.6901733444790215s" dur="17.84685795704221s" keyPoints="1;0" keyTimes="0;1" repeatCount="indefinite" calcMode="linear">
    <mpath xlink:href="#path35"></mpath>
  </animateMotion>
</use><path id="path36" d="M 1759.5772307071597 253.7585779144009
c 0 27.08940805871086 -6.6282594186207415 7.781000187076523 -14.409259605697265 7.781000187076523
S 1730.758711495765 280.84798597311175 1730.758711495765 253.7585779144009
s 6.6282594186207415 -7.781000187076523 14.409259605697265 -7.781000187076523
S 1759.5772307071597 226.66916985569003 1759.5772307071597 253.7585779144009
z" fill="none" stroke="none"></path>
<use xlink:href="#path-r9mfi5dm5uf-1" x="0" y="0" stroke="#bbddff">
  <animateMotion begin="-2.9746992761220206s" dur="19.748322390393753s" keyPoints="1;0" keyTimes="0;1" repeatCount="indefinite" calcMode="linear">
    <mpath xlink:href="#path36"></mpath>
  </animateMotion>
</use><path id="path37" d="M 1778.45675455913 176.32068824001038
c 0 29.6147992685368 -7.246174289110067 8.506378513303124 -15.752552802413192 8.506378513303124
S 1746.9516489543037 205.93548750854717 1746.9516489543037 176.32068824001038
s 7.246174289110067 -8.506378513303124 15.752552802413192 -8.506378513303124
S 1778.45675455913 146.7058889714736 1778.45675455913 176.32068824001038
z" fill="none" stroke="none"></path>
<use xlink:href="#path-r9mfi5dm5uf-2" x="0" y="0" stroke="#aabbcc">
  <animateMotion begin="-2.9862256466318238s" dur="15.51012057339542s" keyPoints="0;1" keyTimes="0;1" repeatCount="indefinite" calcMode="linear">
    <mpath xlink:href="#path37"></mpath>
  </animateMotion>
</use><path id="path38" d="M 1865.1509664576727 723.7729788364677
c 0 54.52454074221139 -13.341111032668742 15.66130425574157 -29.00241528841031 15.66130425574157
S 1807.1461358808522 778.297519578679 1807.1461358808522 723.7729788364677
s 13.341111032668742 -15.66130425574157 29.00241528841031 -15.66130425574157
S 1865.1509664576727 669.2484380942564 1865.1509664576727 723.7729788364677
z" fill="none" stroke="none"></path>
<use xlink:href="#path-r9mfi5dm5uf-3" x="0" y="0" stroke="#aabbcc">
  <animateMotion begin="-2.622071433339168s" dur="19.44189765160783s" keyPoints="0;1" keyTimes="0;1" repeatCount="indefinite" calcMode="linear">
    <mpath xlink:href="#path38"></mpath>
  </animateMotion>
</use><path id="path39" d="M 1911.7190119683003 1041.3911478226048
c 0 42.84138170152117 -10.482465735478584 12.305503254692253 -22.78796899017084 12.305503254692253
S 1866.1430739879586 1084.232529524126 1866.1430739879586 1041.3911478226048
s 10.482465735478584 -12.305503254692253 22.78796899017084 -12.305503254692253
S 1911.7190119683003 998.5497661210836 1911.7190119683003 1041.3911478226048
z" fill="none" stroke="none"></path>
<use xlink:href="#path-r9mfi5dm5uf-2" x="0" y="0" stroke="#bbddff">
  <animateMotion begin="-3.6885137703648163s" dur="10.266241979396142s" keyPoints="1;0" keyTimes="0;1" repeatCount="indefinite" calcMode="linear">
    <mpath xlink:href="#path39"></mpath>
  </animateMotion>
</use></g>
</svg>