<svg xml:space="preserve" viewBox="0 0 100 100" y="0px" x="0px" xmlns:xlink="http://www.w3.org/1999/xlink" xmlns="http://www.w3.org/2000/svg" id="圖層_1" version="1.1" style="height: 100%; width: 100%; background: transparent;" width="128px" height="128px"><g class="ldl-scale" style="transform-origin: 50% 50%; transform: rotate(0deg) scale(1, 1);"><g class="ldl-ani" style="transform-origin: 50px 50px;"><g class="ldl-layer"><g class="ldl-ani"><g><g class="ldl-layer"><g class="ldl-ani" style="transform-origin: 50px 50px; transform: scale(0.91); animation: 0.396825s linear -0.210813s infinite normal forwards running breath-6e379527-ac18-4a0e-80d4-0564c945f0ad;"><line y2="58.4" x2="38.1" y1="70.1" x1="26.4" stroke-miterlimit="10" stroke-linejoin="round" stroke-linecap="round" stroke-width="3.5" stroke="#333435" fill="none" style="stroke: rgb(255, 255, 255);"></line></g></g><g class="ldl-layer"><g class="ldl-ani" style="transform-origin: 50px 50px; transform: scale(0.91); animation: 0.396825s linear -0.223214s infinite normal forwards running breath-6e379527-ac18-4a0e-80d4-0564c945f0ad;"><line y2="65.2" x2="46.9" y1="85.8" x1="26.4" stroke-miterlimit="10" stroke-linejoin="round" stroke-linecap="round" stroke-width="3.5" stroke="#333435" fill="none" style="stroke: rgb(255, 255, 255);"></line></g></g><g class="ldl-layer"><g class="ldl-ani" style="transform-origin: 50px 50px; transform: scale(0.91); animation: 0.396825s linear -0.235615s infinite normal forwards running breath-6e379527-ac18-4a0e-80d4-0564c945f0ad;"><path d="M29.4,60.8l3.7,7.5c0.2,0.4,0.6,0.8,1.1,0.8 l8.2,1.2c1.2,0.2,1.7,1.7,0.8,2.6l-6,5.8C37,79,36.8,79.5,36.9,80l1.4,8.2c0.2,1.2-1.1,2.2-2.2,1.6l-7.4-3.9c-0.4-0.2-1-0.2-1.4,0 L20,89.8c-1.1,0.6-2.4-0.4-2.2-1.6l1.4-8.2c0.1-0.5-0.1-1-0.4-1.3l-6-5.8c-0.9-0.9-0.4-2.4,0.8-2.6l8.2-1.2 c0.5-0.1,0.9-0.4,1.1-0.8l3.7-7.5C27.3,59.7,28.9,59.7,29.4,60.8z" stroke-miterlimit="10" stroke-width="3.5" stroke="#333435" fill="#F5E169" style="fill: rgb(255, 183, 24); stroke: rgb(255, 255, 255);"></path></g></g><g class="ldl-layer"><g class="ldl-ani" style="transform-origin: 50px 50px; transform: scale(0.91); animation: 0.396825s linear -0.248016s infinite normal forwards running breath-6e379527-ac18-4a0e-80d4-0564c945f0ad;"><line y2="40.8" x2="55.7" y1="47.7" x1="48.8" stroke-miterlimit="10" stroke-linejoin="round" stroke-linecap="round" stroke-width="3.5" stroke="#333435" fill="none" style="stroke: rgb(255, 255, 255);"></line></g></g><g class="ldl-layer"><g class="ldl-ani" style="transform-origin: 50px 50px; transform: scale(0.91); animation: 0.396825s linear -0.260417s infinite normal forwards running breath-6e379527-ac18-4a0e-80d4-0564c945f0ad;"><line y2="26.1" x2="86.1" y1="41.4" x1="70.8" stroke-miterlimit="10" stroke-linejoin="round" stroke-linecap="round" stroke-width="3.5" stroke="#333435" fill="none" style="stroke: rgb(255, 255, 255);"></line></g></g><g class="ldl-layer"><g class="ldl-ani" style="transform-origin: 50px 50px; transform: scale(0.91); animation: 0.396825s linear -0.272817s infinite normal forwards running breath-6e379527-ac18-4a0e-80d4-0564c945f0ad;"><line y2="57.8" x2="54.4" y1="60.1" x1="52" stroke-miterlimit="10" stroke-linejoin="round" stroke-linecap="round" stroke-width="3.5" stroke="#333435" fill="none" style="stroke: rgb(255, 255, 255);"></line></g></g></g></g></g><g class="ldl-layer"><g class="ldl-ani"><g><g class="ldl-layer"><g class="ldl-ani" style="transform-origin: 50px 50px; transform: scale(0.91); animation: 0.396825s linear -0.285218s infinite normal forwards running breath-6e379527-ac18-4a0e-80d4-0564c945f0ad;"><line y2="40.3" x2="87.6" y1="46.1" x1="81.8" stroke-miterlimit="10" stroke-linejoin="round" stroke-linecap="round" stroke-width="3.5" stroke="#333435" fill="none" style="stroke: rgb(255, 255, 255);"></line></g></g><g class="ldl-layer"><g class="ldl-ani" style="transform-origin: 50px 50px; transform: scale(0.91); animation: 0.396825s linear -0.297619s infinite normal forwards running breath-6e379527-ac18-4a0e-80d4-0564c945f0ad;"><line y2="55.5" x2="72.4" y1="66.2" x1="61.7" stroke-miterlimit="10" stroke-linejoin="round" stroke-linecap="round" stroke-width="3.5" stroke="#333435" fill="none" style="stroke: rgb(255, 255, 255);"></line></g></g><g class="ldl-layer"><g class="ldl-ani" style="transform-origin: 50px 50px; transform: scale(0.91); animation: 0.396825s linear -0.31002s infinite normal forwards running breath-6e379527-ac18-4a0e-80d4-0564c945f0ad;"><path d="M63.1,59.5l2.5,5.1c0.1,0.3,0.4,0.5,0.8,0.6 L72,66c0.8,0.1,1.2,1.2,0.6,1.7l-4,3.9c-0.2,0.2-0.4,0.6-0.3,0.9l1,5.6c0.1,0.8-0.7,1.5-1.5,1.1l-5-2.6c-0.3-0.2-0.7-0.2-0.9,0 l-5,2.6c-0.7,0.4-1.6-0.2-1.5-1.1l1-5.6c0.1-0.3-0.1-0.7-0.3-0.9l-4-3.9c-0.6-0.6-0.3-1.6,0.6-1.7l5.6-0.8c0.3,0,0.6-0.3,0.8-0.6 l2.5-5.1C61.7,58.8,62.8,58.8,63.1,59.5z" stroke-miterlimit="10" stroke-width="3.5" stroke="#333435" fill="#F5E169" style="fill: rgb(255, 183, 24); stroke: rgb(255, 255, 255);"></path></g></g></g></g></g><g class="ldl-layer"><g class="ldl-ani"><g><g class="ldl-layer"><g class="ldl-ani" style="transform-origin: 50px 50px; transform: scale(0.91); animation: 0.396825s linear -0.322421s infinite normal forwards running breath-6e379527-ac18-4a0e-80d4-0564c945f0ad;"><line y2="11.9" x2="53.2" y1="21.9" x1="43.2" stroke-miterlimit="10" stroke-linejoin="round" stroke-linecap="round" stroke-width="3.5" stroke="#333435" fill="none" style="stroke: rgb(255, 255, 255);"></line></g></g><g class="ldl-layer"><g class="ldl-ani" style="transform-origin: 50px 50px; transform: scale(0.91); animation: 0.396825s linear -0.334821s infinite normal forwards running breath-6e379527-ac18-4a0e-80d4-0564c945f0ad;"><line y2="30.5" x2="34.6" y1="39.3" x1="25.8" stroke-miterlimit="10" stroke-linejoin="round" stroke-linecap="round" stroke-width="3.5" stroke="#333435" fill="none" style="stroke: rgb(255, 255, 255);"></line></g></g><g class="ldl-layer"><g class="ldl-ani" style="transform-origin: 50px 50px; transform: scale(0.91); animation: 0.396825s linear -0.347222s infinite normal forwards running breath-6e379527-ac18-4a0e-80d4-0564c945f0ad;"><line y2="36.5" x2="44.3" y1="44.7" x1="36.1" stroke-miterlimit="10" stroke-linejoin="round" stroke-linecap="round" stroke-width="3.5" stroke="#333435" fill="none" style="stroke: rgb(255, 255, 255);"></line></g></g><g class="ldl-layer"><g class="ldl-ani" style="transform-origin: 50px 50px; transform: scale(0.91); animation: 0.396825s linear -0.359623s infinite normal forwards running breath-6e379527-ac18-4a0e-80d4-0564c945f0ad;"><path d="M24.3,32.9l2,4c0.1,0.2,0.3,0.4,0.6,0.4 l4.4,0.6c0.7,0.1,0.9,0.9,0.4,1.4l-3.2,3.1c-0.2,0.2-0.3,0.4-0.2,0.7l0.8,4.4c0.1,0.7-0.6,1.2-1.2,0.8L24,46.3 c-0.2-0.1-0.5-0.1-0.7,0l-3.9,2.1c-0.6,0.3-1.3-0.2-1.2-0.8l0.8-4.4c0-0.3,0-0.5-0.2-0.7l-3.2-3.1c-0.5-0.5-0.2-1.3,0.4-1.4 l4.4-0.6c0.3,0,0.5-0.2,0.6-0.4l2-4C23.2,32.3,24,32.3,24.3,32.9z" stroke-miterlimit="10" stroke-width="3.5" stroke="#333435" fill="#F5E169" style="fill: rgb(255, 183, 24); stroke: rgb(255, 255, 255);"></path></g></g></g></g></g><g class="ldl-layer"><g class="ldl-ani"><g><g class="ldl-layer"><g class="ldl-ani" style="transform-origin: 50px 50px; transform: scale(0.91); animation: 0.396825s linear -0.372024s infinite normal forwards running breath-6e379527-ac18-4a0e-80d4-0564c945f0ad;"><line y2="10.4" x2="86.1" y1="23.1" x1="73.3" stroke-miterlimit="10" stroke-linejoin="round" stroke-linecap="round" stroke-width="3.5" stroke="#333435" fill="none" style="stroke: rgb(255, 255, 255);"></line></g></g><g class="ldl-layer"><g class="ldl-ani" style="transform-origin: 50px 50px; transform: scale(0.91); animation: 0.396825s linear -0.384425s infinite normal forwards running breath-6e379527-ac18-4a0e-80d4-0564c945f0ad;"><line y2="10" x2="70.8" y1="23.1" x1="57.7" stroke-miterlimit="10" stroke-linejoin="round" stroke-linecap="round" stroke-width="3.5" stroke="#333435" fill="none" style="stroke: rgb(255, 255, 255);"></line></g></g><g class="ldl-layer"><g class="ldl-ani" style="transform-origin: 50px 50px; transform: scale(0.91); animation: 0.396825s linear -0.396825s infinite normal forwards running breath-6e379527-ac18-4a0e-80d4-0564c945f0ad;"><path d="M55.4,18.8l2,4c0.1,0.2,0.3,0.4,0.6,0.4 l4.4,0.6c0.7,0.1,0.9,0.9,0.4,1.4l-3.2,3.1c-0.2,0.2-0.3,0.4-0.2,0.7l0.8,4.4c0.1,0.7-0.6,1.2-1.2,0.8l-3.9-2.1 c-0.2-0.1-0.5-0.1-0.7,0l-3.9,2.1c-0.6,0.3-1.3-0.2-1.2-0.8l0.8-4.4c0-0.3,0-0.5-0.2-0.7l-3.2-3.1c-0.5-0.5-0.2-1.3,0.4-1.4 l4.4-0.6c0.3,0,0.5-0.2,0.6-0.4l2-4C54.3,18.2,55.1,18.2,55.4,18.8z" stroke-miterlimit="10" stroke-width="3.5" stroke="#333435" fill="#F5E169" style="fill: rgb(255, 183, 24); stroke: rgb(255, 255, 255);"></path></g></g></g></g></g><metadata xmlns:d="https://loading.io/stock/">
<d:name>shooting star</d:name>
<d:tags>star,meteorite,asteriod,falling star,meteor shower</d:tags>
<d:license>by</d:license>
<d:slug>v2s9uy</d:slug>
</metadata></g></g></svg>